<svg width="26" height="26" viewBox="0 0 26 26" fill="none" xmlns="http://www.w3.org/2000/svg">
<path d="M11.3246 13.4483L15.4325 8.91601C15.6496 8.67662 15.6315 8.30642 15.3918 8.08957C15.1527 7.87242 14.7822 7.89086 14.5654 8.13024L10.1077 13.0479C9.98804 13.1799 9.94239 13.3517 9.96346 13.5156C9.95878 13.6806 10.0208 13.8466 10.1528 13.966L15.0699 18.4233C15.182 18.5252 15.3228 18.5752 15.4632 18.5752C15.6227 18.5752 15.7813 18.5102 15.8969 18.3829C16.1138 18.1435 16.0959 17.7733 15.8563 17.5565L11.3246 13.4483Z" fill="#444444" fill-opacity="0.2"/>
<path d="M26 12.9998C26 5.83179 20.1678 0 12.9998 0C5.83179 0 0 5.83179 0 12.9998C0 20.1682 5.83179 26 12.9998 26C20.1678 26 26 20.1682 26 12.9998ZM12.9998 24.4458C6.68855 24.4458 1.55421 19.3111 1.55421 12.9998C1.55421 6.68893 6.68855 1.55421 12.9998 1.55421C19.3111 1.55421 24.4458 6.68893 24.4458 12.9998C24.4458 19.3111 19.3111 24.4458 12.9998 24.4458Z" fill="#444444" fill-opacity="0.2"/>
</svg>
