<svg width="26" height="26" viewBox="0 0 26 26" fill="none" xmlns="http://www.w3.org/2000/svg">
<path d="M14.6754 13.4483L10.5675 8.91601C10.3504 8.67662 10.3685 8.30642 10.6082 8.08957C10.8473 7.87242 11.2178 7.89086 11.4346 8.13024L15.8923 13.0479C16.012 13.1799 16.0576 13.3517 16.0365 13.5156C16.0412 13.6806 15.9792 13.8466 15.8472 13.966L10.9301 18.4233C10.818 18.5252 10.6772 18.5752 10.5368 18.5752C10.3773 18.5752 10.2187 18.5102 10.1031 18.3829C9.88621 18.1435 9.90407 17.7733 10.1437 17.5565L14.6754 13.4483Z" fill="#444444" fill-opacity="0.7"/>
<path d="M0 12.9998C0 5.83179 5.83217 0 13.0002 0C20.1682 0 26 5.83179 26 12.9998C26 20.1682 20.1682 26 13.0002 26C5.83217 26 0 20.1682 0 12.9998ZM13.0002 24.4458C19.3115 24.4458 24.4458 19.3111 24.4458 12.9998C24.4458 6.68893 19.3115 1.55421 13.0002 1.55421C6.68893 1.55421 1.55421 6.68893 1.55421 12.9998C1.55421 19.3111 6.68893 24.4458 13.0002 24.4458Z" fill="#444444" fill-opacity="0.7"/>
</svg>
